<svg viewBox="0 0 1400 1100" xmlns="http://www.w3.org/2000/svg">
  <defs>
    <style>
      .layer { fill: #f0f0f0; stroke: #ccc; stroke-width: 2px; }
      .layer-label { font: 16px sans-serif; font-weight: bold; fill: #333; }
      .node { fill: #667eea; stroke: #764ba2; stroke-width: 2px; rx: 8; }
      .node-text { font: 13px sans-serif; fill: white; text-anchor: middle; }
      .quantum { fill: #f3e5f5; stroke: #7b1fa2; stroke-width: 2px; rx: 8; }
      .quantum-text { font: 13px sans-serif; fill: #333; text-anchor: middle; }
      .hamiltonian { fill: #fff3e0; stroke: #e65100; stroke-width: 2px; rx: 8; }
      .ham-text { font: 13px sans-serif; fill: #333; text-anchor: middle; }
      .arrow { stroke: #764ba2; stroke-width: 2; fill: none; marker-end: url(#arrowhead); }
    </style>
    <marker id="arrowhead" markerWidth="10" markerHeight="10" refX="9" refY="3" orient="auto">
      <polygon points="0 0, 10 3, 0 6" fill="#764ba2" />
    </marker>
  </defs>

  <text x="700" y="30" text-anchor="middle" font-size="24" font-weight="bold" fill="#667eea">
    Quantum Governance Operators (QGO) Framework
  </text>

  <!-- Classical Input -->
  <rect x="50" y="60" width="280" height="120" class="layer"/>
  <text x="190" y="85" text-anchor="middle" class="layer-label">Classical Input</text>
  <rect x="70" y="105" width="240" height="30" class="node"/>
  <text x="190" y="125" text-anchor="middle" class="node-text">Policy Proposals</text>
  <rect x="70" y="145" width="240" height="30" class="node"/>
  <text x="190" y="165" text-anchor="middle" class="node-text">Stakeholder Preferences</text>

  <!-- Quantum Encoding -->
  <rect x="380" y="60" width="280" height="150" class="layer"/>
  <text x="520" y="85" text-anchor="middle" class="layer-label">Quantum Encoding</text>
  <rect x="400" y="110" width="240" height="35" class="quantum"/>
  <text x="520" y="132" text-anchor="middle" class="quantum-text">|ψ_classical⟩</text>
  <rect x="400" y="155" width="240" height="35" class="quantum"/>
  <text x="520" y="177" text-anchor="middle" class="quantum-text">Superposition Init</text>

  <!-- Quantum Processing Core -->
  <rect x="710" y="60" width="280" height="180" class="layer"/>
  <text x="850" y="85" text-anchor="middle" class="layer-label">Quantum Processing</text>
  <rect x="730" y="110" width="240" height="35" class="quantum"/>
  <text x="850" y="132" text-anchor="middle" class="quantum-text">∑αᵢ|policyᵢ⟩</text>
  <rect x="730" y="155" width="240" height="35" class="quantum"/>
  <text x="850" y="177" text-anchor="middle" class="quantum-text">|Ψ⟩_entangled</text>
  <rect x="730" y="200" width="240" height="35" class="quantum"/>
  <text x="850" y="222" text-anchor="middle" class="quantum-text">Quantum Oracle U_f</text>

  <!-- Governance Hamiltonian -->
  <rect x="1040" y="60" width="310" height="150" class="layer"/>
  <text x="1195" y="85" text-anchor="middle" class="layer-label">Hamiltonian</text>
  <rect x="1060" y="110" width="290" height="40" class="hamiltonian"/>
  <text x="1195" y="135" text-anchor="middle" class="ham-text">Ĥ(t) = Ĥ₀ + Ĥᵢₙₜ + Ĥₑₓₜ</text>

  <!-- Quantum Algorithms -->
  <rect x="710" y="280" width="280" height="150" class="layer"/>
  <text x="850" y="305" text-anchor="middle" class="layer-label">Quantum Algorithms</text>
  <rect x="730" y="325" width="240" height="30" class="quantum"/>
  <text x="850" y="345" text-anchor="middle" class="quantum-text">Grover's Algorithm</text>
  <rect x="730" y="365" width="240" height="30" class="quantum"/>
  <text x="850" y="385" text-anchor="middle" class="quantum-text">Quantum Consensus</text>

  <!-- Quantum Hardware -->
  <rect x="1040" y="250" width="310" height="180" class="layer"/>
  <text x="1195" y="275" text-anchor="middle" class="layer-label">Quantum Hardware</text>
  <rect x="1060" y="295" width="290" height="35" fill="#fff9c4" stroke="#f57f17" stroke-width="2" rx="8"/>
  <text x="1195" y="317" text-anchor="middle" class="quantum-text">16-1000 Qubits</text>
  <rect x="1060" y="340" width="290" height="35" fill="#fff9c4" stroke="#f57f17" stroke-width="2" rx="8"/>
  <text x="1195" y="362" text-anchor="middle" class="quantum-text">Quantum Gates</text>
  <rect x="1060" y="385" width="290" height="35" fill="#fff9c4" stroke="#f57f17" stroke-width="2" rx="8"/>
  <text x="1195" y="407" text-anchor="middle" class="quantum-text">Measurement</text>

  <!-- Classical Post-Processing -->
  <rect x="710" y="470" width="280" height="120" class="layer"/>
  <text x="850" y="495" text-anchor="middle" class="layer-label">Classical Post-Processing</text>
  <rect x="730" y="515" width="240" height="30" class="node"/>
  <text x="850" y="535" text-anchor="middle" class="node-text">Result Interpretation</text>
  <rect x="730" y="555" width="240" height="30" class="node"/>
  <text x="850" y="575" text-anchor="middle" class="node-text">Performance Metrics</text>

  <!-- Output -->
  <rect x="1040" y="470" width="310" height="120" class="layer"/>
  <text x="1195" y="495" text-anchor="middle" class="layer-label">Output</text>
  <rect x="1060" y="515" width="290" height="30" class="hamiltonian"/>
  <text x="1195" y="535" text-anchor="middle" class="ham-text">Optimal Policy</text>
  <rect x="1060" y="555" width="290" height="30" class="hamiltonian"/>
  <text x="1195" y="575" text-anchor="middle" class="ham-text">Quality Scores</text>

  <!-- Flow arrows -->
  <path d="M 330 120 L 380 120" class="arrow"/>
  <path d="M 660 150 L 710 150" class="arrow"/>
  <path d="M 850 240 L 850 280" class="arrow"/>
  <path d="M 990 200 L 1040 280" class="arrow"/>
  <path d="M 1195 250 L 1195 430" class="arrow"/>
  <path d="M 1195 430 L 1195 470" class="arrow"/>
  <path d="M 990 540 L 1040 540" class="arrow"/>

  <!-- Mathematical Formulations Box -->
  <rect x="50" y="650" width="1300" height="140" fill="#f9f9f9" stroke="#ddd" stroke-width="2"/>
  <text x="700" y="675" text-anchor="middle" font-size="16" font-weight="bold" fill="#667eea">Mathematical Framework</text>
  <text x="120" y="705" font-size="13" fill="#333" font-family="monospace">|ψ_policy⟩ = Σαᵢe^(iφᵢ)|policyᵢ⟩</text>
  <text x="120" y="730" font-size="13" fill="#333" font-family="monospace">|Ψ⟩ = 1/√2(|econ_+⟩|social_+⟩ + |econ_-⟩|social_-⟩)</text>
  <text x="120" y="755" font-size="13" fill="#333" font-family="monospace">S = -Tr(ρ_A log ρ_A)</text>
  <text x="120" y="780" font-size="13" fill="#333" font-family="monospace">DQI = (Σwᵢ·utilityᵢ)/max(Σwᵢ·utilityᵢ)</text>

  <!-- Performance Metrics -->
  <rect x="50" y="820" width="1300" height="250" fill="#f9f9f9" stroke="#ddd" stroke-width="2"/>
  <text x="700" y="845" text-anchor="middle" font-size="18" font-weight="bold" fill="#667eea">Experimental Results - 50,000 Participants</text>

  <!-- Metric Cards -->
  <rect x="80" y="865" width="280" height="190" fill="white" stroke="#667eea" stroke-width="2" rx="10"/>
  <text x="220" y="895" text-anchor="middle" font-size="32" font-weight="bold" fill="#667eea">40%</text>
  <text x="220" y="925" text-anchor="middle" font-size="14" fill="#333">Decision Paralysis Reduction</text>
  <text x="220" y="950" text-anchor="middle" font-size="12" fill="#666">p < 0.001</text>
  <text x="220" y="975" text-anchor="middle" font-size="12" fill="#666">Cohen's d = 2.1</text>
  <text x="220" y="1000" text-anchor="middle" font-size="11" fill="#999">Statistical Significance</text>
  <text x="220" y="1045" text-anchor="middle" font-size="13" fill="#333">Time-to-Decision</text>

  <rect x="390" y="865" width="280" height="190" fill="white" stroke="#764ba2" stroke-width="2" rx="10"/>
  <text x="530" y="895" text-anchor="middle" font-size="32" font-weight="bold" fill="#764ba2">67%</text>
  <text x="530" y="925" text-anchor="middle" font-size="14" fill="#333">Policy Coherence</text>
  <text x="530" y="950" text-anchor="middle" font-size="12" fill="#666">Cross-Domain Alignment</text>
  <text x="530" y="975" text-anchor="middle" font-size="12" fill="#666">Improvement</text>
  <text x="530" y="1000" text-anchor="middle" font-size="11" fill="#999">Correlation: r = 0.82</text>
  <text x="530" y="1045" text-anchor="middle" font-size="13" fill="#333">Coordination Quality</text>

  <rect x="700" y="865" width="280" height="190" fill="white" stroke="#667eea" stroke-width="2" rx="10"/>
  <text x="840" y="895" text-anchor="middle" font-size="32" font-weight="bold" fill="#667eea">58%</text>
  <text x="840" y="925" text-anchor="middle" font-size="14" fill="#333">Stakeholder Satisfaction</text>
  <text x="840" y="950" text-anchor="middle" font-size="12" fill="#666">Perceived Fairness</text>
  <text x="840" y="975" text-anchor="middle" font-size="12" fill="#666">Increase</text>
  <text x="840" y="1000" text-anchor="middle" font-size="11" fill="#999">Survey: n=50,000</text>
  <text x="840" y="1045" text-anchor="middle" font-size="13" fill="#333">User Experience</text>

  <rect x="1010" y="865" width="280" height="190" fill="white" stroke="#764ba2" stroke-width="2" rx="10"/>
  <text x="1150" y="895" text-anchor="middle" font-size="32" font-weight="bold" fill="#764ba2">3.2x</text>
  <text x="1150" y="925" text-anchor="middle" font-size="14" fill="#333">Quantum Advantage</text>
  <text x="1150" y="950" text-anchor="middle" font-size="12" fill="#666">Speedup over Classical</text>
  <text x="1150" y="975" text-anchor="middle" font-size="12" fill="#666">Optimization</text>
  <text x="1150" y="1000" text-anchor="middle" font-size="11" fill="#999">O(log N · log M) scaling</text>
  <text x="1150" y="1045" text-anchor="middle" font-size="13" fill="#333">Computational Efficiency</text>
</svg>
