<?xml version="1.0" standalone="no"?>
<!DOCTYPE svg PUBLIC "-//W3C//DTD SVG 20010904//EN"
 "http://www.w3.org/TR/2001/REC-SVG-20010904/DTD/svg10.dtd">
<svg version="1.0" xmlns="http://www.w3.org/2000/svg"
 width="800.000000pt" height="600.000000pt" viewBox="0 0 800.000000 600.000000"
 preserveAspectRatio="xMidYMid meet">
<metadata>
Created by potrace 1.16, written by Peter Selinger 2001-2019
</metadata>
<g transform="translate(0.000000,600.000000) scale(0.100000,-0.100000)"
fill="#000000" stroke="none">
<path d="M3311 3578 c17 -45 32 -85 35 -90 10 -16 25 -8 35 20 52 134 57 152
46 152 -7 0 -24 -32 -37 -71 -14 -39 -28 -73 -31 -75 -3 -2 -16 30 -29 71 -13
41 -29 75 -36 75 -9 0 -3 -25 17 -82z"/>
<path d="M3450 3650 c0 -5 5 -10 10 -10 6 0 10 5 10 10 0 6 -4 10 -10 10 -5 0
-10 -4 -10 -10z"/>
<path d="M3920 3570 c0 -53 4 -90 10 -90 6 0 10 37 10 90 0 53 -4 90 -10 90
-6 0 -10 -37 -10 -90z"/>
<path d="M4040 3590 c0 -79 19 -110 68 -110 52 0 72 33 72 119 0 48 -3 61 -15
61 -12 0 -15 -14 -15 -69 0 -76 -13 -97 -54 -87 -27 7 -36 30 -36 104 0 28 -4
52 -10 52 -6 0 -10 -30 -10 -70z"/>
<path d="M4550 3650 c0 -5 5 -10 10 -10 6 0 10 5 10 10 0 6 -4 10 -10 10 -5 0
-10 -4 -10 -10z"/>
<path d="M3590 3630 c0 -20 -21 -26 -72 -22 -16 2 -18 -7 -18 -63 0 -51 3 -65
15 -65 11 0 15 12 15 50 0 43 3 52 23 59 32 12 37 6 37 -50 0 -35 4 -51 15
-56 9 -3 19 -2 23 2 4 4 1 10 -5 12 -8 3 -13 22 -13 48 0 25 5 46 13 49 10 5
10 7 0 12 -7 3 -13 14 -13 25 0 10 -4 19 -10 19 -5 0 -10 -9 -10 -20z"/>
<path d="M4220 3631 c0 -11 -6 -22 -12 -25 -10 -5 -10 -7 0 -12 7 -3 12 -25
12 -55 0 -36 4 -51 15 -56 9 -3 19 -2 23 2 4 4 1 10 -5 12 -8 3 -13 22 -13 48
0 25 5 46 13 49 10 5 10 7 0 12 -7 3 -13 14 -13 25 0 10 -4 19 -10 19 -5 0
-10 -9 -10 -19z"/>
<path d="M3450 3545 c0 -37 4 -65 10 -65 6 0 10 28 10 65 0 37 -4 65 -10 65
-6 0 -10 -28 -10 -65z"/>
<path d="M3650 3556 c0 -62 11 -75 63 -73 l37 1 0 63 c0 76 -18 85 -22 11 -3
-49 -5 -53 -28 -53 -23 0 -25 4 -28 53 -4 68 -22 67 -22 -2z"/>
<path d="M3795 3594 c-9 -9 -13 -19 -10 -22 3 -3 11 0 17 6 16 16 58 15 58 -1
0 -8 -18 -19 -40 -26 -32 -10 -40 -16 -40 -36 0 -27 19 -35 78 -33 31 1 32 3
32 45 0 25 -5 53 -10 64 -13 24 -62 26 -85 3z m63 -71 c-4 -21 -36 -29 -51
-14 -9 9 -8 14 3 21 25 16 52 12 48 -7z"/>
<path d="M4286 3588 c-47 -67 28 -144 84 -88 11 11 20 31 20 45 0 56 -74 86
-104 43z m73 -20 c17 -46 -21 -86 -54 -58 -18 15 -19 52 -3 68 19 19 48 14 57
-10z"/>
<path d="M4410 3518 c0 -52 4 -88 10 -88 6 0 10 13 10 30 0 27 2 29 29 24 50
-10 79 56 46 103 -12 17 -25 22 -55 20 l-40 -1 0 -88z m78 60 c30 -30 -2 -93
-36 -71 -21 13 -27 50 -12 69 15 17 32 18 48 2z"/>
<path d="M4550 3545 c0 -37 4 -65 10 -65 6 0 10 28 10 65 0 37 -4 65 -10 65
-6 0 -10 -28 -10 -65z"/>
<path d="M4610 3595 c-7 -9 -10 -19 -6 -22 4 -4 11 -2 15 6 10 15 53 11 58 -6
3 -7 -10 -15 -31 -18 -78 -15 -72 -69 8 -71 l46 -1 0 52 c0 28 -5 56 -12 63
-17 17 -63 15 -78 -3z m68 -67 c-7 -19 -34 -32 -53 -24 -14 5 -15 9 -5 21 15
18 63 20 58 3z"/>
<path d="M2610 3291 c0 -54 4 -91 10 -91 6 0 10 32 11 73 l1 72 22 -69 c12
-38 27 -71 33 -73 6 -2 22 29 36 69 l25 73 1 -72 c1 -42 5 -73 11 -73 6 0 10
37 10 90 0 72 -3 90 -14 90 -9 0 -23 -26 -37 -70 -13 -38 -25 -67 -28 -64 -3
3 -15 33 -27 67 -13 39 -27 63 -37 65 -15 3 -17 -8 -17 -87z"/>
<path d="M2810 3370 c0 -5 5 -10 10 -10 6 0 10 5 10 10 0 6 -4 10 -10 10 -5 0
-10 -4 -10 -10z"/>
<path d="M3650 3370 c0 -5 5 -10 10 -10 6 0 10 5 10 10 0 6 -4 10 -10 10 -5 0
-10 -4 -10 -10z"/>
<path d="M4143 3290 c-24 -67 -29 -90 -19 -90 8 0 17 11 20 25 5 21 12 25 46
25 34 0 41 -4 46 -25 3 -14 12 -25 20 -25 13 0 9 17 -45 153 -18 46 -35 31
-68 -63z m65 13 c11 -32 10 -33 -20 -33 -25 0 -29 3 -23 18 4 9 10 27 13 40 5
28 15 19 30 -25z"/>
<path d="M4490 3290 c0 -96 17 -125 22 -38 2 42 7 54 22 56 25 5 36 -14 36
-65 0 -24 5 -43 10 -43 15 0 12 93 -3 115 -10 12 -22 16 -40 13 -24 -5 -27 -2
-27 23 0 16 -4 29 -10 29 -6 0 -10 -37 -10 -90z"/>
<path d="M4620 3370 c0 -5 5 -10 10 -10 6 0 10 5 10 10 0 6 -4 10 -10 10 -5 0
-10 -4 -10 -10z"/>
<path d="M4680 3351 c0 -11 -6 -22 -12 -25 -10 -5 -10 -7 0 -12 7 -3 12 -25
12 -55 0 -36 4 -51 15 -56 9 -3 19 -2 23 2 4 4 1 10 -5 12 -8 3 -13 22 -13 48
0 25 5 46 13 49 10 5 10 7 0 12 -7 3 -13 14 -13 25 0 10 -4 19 -10 19 -5 0
-10 -9 -10 -19z"/>
<path d="M5000 3351 c0 -11 -6 -22 -12 -25 -10 -5 -10 -7 0 -12 7 -3 12 -25
12 -55 0 -36 4 -51 15 -56 9 -3 19 -2 23 2 4 4 1 10 -5 12 -8 3 -13 22 -13 48
0 25 5 46 13 49 10 5 10 7 0 12 -7 3 -13 14 -13 25 0 10 -4 19 -10 19 -5 0
-10 -9 -10 -19z"/>
<path d="M2810 3265 c0 -37 4 -65 10 -65 6 0 10 28 10 65 0 37 -4 65 -10 65
-6 0 -10 -28 -10 -65z"/>
<path d="M2870 3310 c-37 -37 -14 -110 35 -110 24 0 55 23 55 41 0 15 -17 10
-24 -6 -8 -22 -44 -18 -57 6 -23 44 25 91 59 57 6 -6 14 -9 17 -6 10 9 -25 38
-46 38 -10 0 -28 -9 -39 -20z"/>
<path d="M2980 3263 c0 -35 4 -63 10 -63 6 0 10 18 10 39 0 49 8 71 26 71 8 0
14 4 14 9 0 5 -13 9 -30 9 l-30 -1 0 -64z"/>
<path d="M3066 3308 c-47 -67 28 -144 84 -88 11 11 20 31 20 45 0 56 -74 86
-104 43z m75 -19 c15 -29 -3 -69 -31 -69 -28 0 -46 40 -31 69 7 11 20 21 31
21 11 0 24 -10 31 -21z"/>
<path d="M3202 3318 c-23 -23 -13 -45 29 -61 23 -9 38 -21 34 -27 -9 -14 -52
-13 -58 3 -2 6 -8 9 -12 5 -13 -12 15 -38 41 -38 25 0 57 26 51 44 -2 6 -20
19 -40 29 -20 10 -37 23 -37 28 0 14 48 11 53 -3 2 -7 8 -10 12 -6 12 12 -15
38 -39 38 -12 0 -27 -5 -34 -12z"/>
<path d="M3326 3314 c-9 -8 -16 -31 -16 -49 0 -60 57 -87 95 -45 16 18 16 20
2 20 -10 0 -17 -5 -17 -11 0 -18 -55 -6 -58 14 -3 14 4 17 42 17 38 0 46 3 46
18 0 43 -63 67 -94 36z m64 -19 c11 -13 7 -15 -24 -15 -34 0 -44 8 -29 23 11
12 40 8 53 -8z"/>
<path d="M3450 3263 c0 -76 18 -84 22 -12 2 42 7 53 24 60 20 7 24 1 44 -52
12 -33 26 -59 32 -57 17 6 58 128 43 128 -7 0 -18 -20 -25 -45 -7 -25 -16 -45
-20 -45 -4 0 -13 20 -20 45 l-13 46 -43 -3 -44 -3 0 -62z"/>
<path d="M3650 3265 c0 -37 4 -65 10 -65 6 0 10 28 10 65 0 37 -4 65 -10 65
-6 0 -10 -28 -10 -65z"/>
<path d="M3717 3318 c-9 -7 -20 -27 -23 -44 -11 -56 52 -96 90 -58 9 8 16 20
16 25 0 15 -17 10 -24 -6 -8 -23 -45 -18 -55 7 -17 47 13 83 51 59 26 -16 34
-8 13 13 -20 19 -45 21 -68 4z"/>
<path d="M3830 3310 c-11 -11 -20 -31 -20 -45 0 -51 70 -86 100 -50 16 19 5
34 -12 17 -18 -18 -46 -14 -58 8 -10 19 -8 20 40 20 49 0 51 1 45 23 -15 47
-61 61 -95 27z m68 -17 c2 -9 -7 -13 -27 -13 -30 0 -39 9 -24 24 11 10 46 3
51 -11z"/>
<path d="M3962 3318 c-23 -23 -13 -45 29 -61 23 -9 38 -21 34 -27 -8 -14 -38
-13 -53 2 -17 17 -28 2 -12 -17 16 -20 54 -19 75 1 22 22 15 36 -28 57 -20 10
-37 23 -37 28 0 14 48 11 53 -3 2 -7 8 -10 12 -6 12 12 -15 38 -39 38 -12 0
-27 -5 -34 -12z"/>
<path d="M4290 3263 c0 -35 4 -63 10 -63 6 0 10 23 10 51 0 42 3 52 20 56 30
8 24 22 -10 21 l-30 -1 0 -64z"/>
<path d="M4376 3308 c-32 -46 -9 -108 41 -108 25 0 59 35 44 45 -6 3 -14 -1
-17 -9 -13 -34 -64 -11 -64 29 0 37 52 64 63 33 2 -7 8 -10 12 -6 13 12 -15
38 -41 38 -12 0 -30 -10 -38 -22z"/>
<path d="M4620 3265 c0 -37 4 -65 10 -65 6 0 10 28 10 65 0 37 -4 65 -10 65
-6 0 -10 -28 -10 -65z"/>
<path d="M4757 3318 c-28 -22 -32 -73 -8 -97 25 -25 63 -27 81 -6 17 21 7 29
-18 14 -23 -14 -52 -6 -52 16 0 11 11 15 45 15 51 0 59 16 25 50 -23 23 -49
26 -73 8z m61 -25 c2 -9 -7 -13 -27 -13 -30 0 -39 9 -24 24 11 10 46 3 51 -11z"/>
<path d="M4886 3314 c-21 -20 -20 -78 0 -99 20 -20 63 -16 78 7 14 23 -1 36
-17 14 -22 -31 -52 -16 -55 27 -4 43 17 58 50 38 25 -15 35 -7 18 14 -16 20
-54 19 -74 -1z"/>
<path d="M5060 3276 c0 -62 11 -75 63 -73 l37 1 0 63 c0 35 -4 63 -10 63 -5 0
-10 -19 -10 -42 0 -52 -11 -71 -36 -66 -15 2 -20 14 -22 56 -4 69 -22 67 -22
-2z"/>
<path d="M5190 3263 c0 -35 4 -63 10 -63 6 0 10 16 10 36 0 42 15 74 35 74 8
0 15 4 15 9 0 5 -16 9 -35 8 l-35 -1 0 -63z"/>
<path d="M5287 3312 c-37 -40 -12 -112 38 -112 29 0 65 32 44 39 -7 2 -15 -1
-17 -7 -6 -18 -49 -14 -56 4 -9 24 -9 24 39 24 37 0 45 3 45 18 0 24 -31 52
-57 52 -11 0 -27 -8 -36 -18z m67 -17 c4 -12 -3 -15 -29 -15 -33 0 -43 8 -28
23 12 13 51 7 57 -8z"/>
<path d="M1448 2809 c-21 -12 -24 -52 -5 -66 6 -6 29 -16 50 -23 30 -9 38 -16
35 -33 -4 -32 -50 -35 -77 -6 -24 26 -38 20 -22 -10 23 -42 103 -39 123 5 14
31 -5 54 -60 69 -27 8 -37 16 -37 30 0 27 41 32 66 9 25 -23 37 -10 14 16 -19
21 -59 26 -87 9z"/>
<path d="M2000 2790 c0 -27 -2 -29 -29 -24 -50 10 -79 -56 -45 -104 11 -17 24
-21 55 -20 l39 1 0 89 c0 52 -4 88 -10 88 -5 0 -10 -13 -10 -30z m-4 -64 c8
-35 -4 -66 -27 -66 -27 0 -45 41 -30 69 16 29 49 27 57 -3z"/>
<path d="M2050 2810 c0 -5 5 -10 10 -10 6 0 10 5 10 10 0 6 -4 10 -10 10 -5 0
-10 -4 -10 -10z"/>
<path d="M2931 2783 c-6 -21 -17 -60 -26 -88 -18 -59 -17 -55 -6 -55 5 0 11
10 15 23 3 12 14 52 25 90 11 37 16 67 11 67 -5 0 -14 -17 -19 -37z"/>
<path d="M3170 2810 c0 -5 5 -10 10 -10 6 0 10 5 10 10 0 6 -4 10 -10 10 -5 0
-10 -4 -10 -10z"/>
<path d="M4010 2810 c0 -5 5 -10 10 -10 6 0 10 5 10 10 0 6 -4 10 -10 10 -5 0
-10 -4 -10 -10z"/>
<path d="M4910 2730 c0 -96 17 -125 22 -38 2 42 7 54 22 56 25 5 36 -14 36
-65 0 -24 5 -43 10 -43 6 0 10 24 10 54 0 61 -15 81 -55 74 -22 -5 -25 -2 -25
23 0 16 -4 29 -10 29 -6 0 -10 -37 -10 -90z"/>
<path d="M5040 2810 c0 -5 5 -10 10 -10 6 0 10 5 10 10 0 6 -4 10 -10 10 -5 0
-10 -4 -10 -10z"/>
<path d="M5970 2791 c0 -24 -3 -28 -23 -24 -32 6 -57 -21 -57 -61 0 -41 25
-65 68 -64 l32 1 0 89 c0 52 -4 88 -10 88 -5 0 -10 -13 -10 -29z m-1 -63 c12
-33 -2 -63 -30 -63 -19 0 -25 6 -27 28 -2 16 -1 35 2 43 9 22 46 17 55 -8z"/>
<path d="M6410 2810 c0 -5 7 -10 15 -10 8 0 15 5 15 10 0 6 -7 10 -15 10 -8 0
-15 -4 -15 -10z"/>
<path d="M5100 2791 c0 -11 -6 -22 -12 -25 -10 -5 -10 -7 0 -12 7 -3 12 -25
12 -55 0 -36 4 -51 15 -56 9 -3 19 -2 23 2 4 4 1 10 -5 12 -8 3 -13 22 -13 48
0 25 5 46 13 49 10 5 10 7 0 12 -7 3 -13 14 -13 25 0 10 -4 19 -10 19 -5 0
-10 -9 -10 -19z"/>
<path d="M5420 2791 c0 -11 -6 -22 -12 -25 -10 -5 -10 -7 0 -12 7 -3 12 -25
12 -55 0 -36 4 -51 15 -56 9 -3 19 -2 23 2 4 4 1 10 -5 12 -8 3 -13 22 -13 48
0 25 5 46 13 49 10 5 10 7 0 12 -7 3 -13 14 -13 25 0 10 -4 19 -10 19 -5 0
-10 -9 -10 -19z"/>
<path d="M1597 2752 c-52 -58 17 -143 79 -98 25 19 12 31 -15 14 -15 -9 -26
-10 -38 -2 -34 21 -26 34 21 34 39 0 46 3 46 19 0 46 -62 67 -93 33z m71 -19
c2 -9 -8 -13 -33 -13 -33 0 -36 2 -25 15 15 18 51 16 58 -2z"/>
<path d="M1730 2750 c-11 -11 -20 -31 -20 -45 0 -51 70 -86 100 -50 17 21 7
29 -18 14 -23 -14 -52 -6 -52 16 0 11 11 15 45 15 33 0 45 4 45 15 0 22 -37
55 -60 55 -11 0 -29 -9 -40 -20z m68 -17 c2 -9 -7 -13 -27 -13 -30 0 -39 9
-24 24 11 10 46 3 51 -11z"/>
<path d="M2050 2705 c0 -37 4 -65 10 -65 6 0 10 28 10 65 0 37 -4 65 -10 65
-6 0 -10 -28 -10 -65z"/>
<path d="M2114 2753 c-13 -13 -14 -18 -3 -22 7 -2 15 1 17 8 5 16 49 14 55 -3
4 -10 -5 -16 -28 -20 -77 -15 -71 -70 9 -72 l46 -1 0 52 c0 28 -5 56 -12 63
-17 17 -64 15 -84 -5z m66 -73 c-12 -22 -45 -27 -56 -9 -8 14 14 29 44 29 20
0 21 -3 12 -20z"/>
<path d="M2246 2748 c-34 -48 -5 -113 46 -106 22 4 28 1 26 -11 -4 -18 -58
-29 -58 -12 0 6 -4 11 -10 11 -16 0 -11 -27 6 -34 60 -23 84 6 84 98 l0 73
-39 1 c-31 1 -44 -3 -55 -20z m70 -22 c9 -38 1 -61 -24 -64 -29 -4 -49 36 -33
67 16 29 49 27 57 -3z"/>
<path d="M2370 2703 c0 -35 4 -63 10 -63 6 0 10 16 10 36 0 42 15 74 35 74 8
0 15 4 15 9 0 5 -16 9 -35 8 l-35 -1 0 -63z"/>
<path d="M2464 2756 c-10 -8 -16 -18 -11 -22 4 -4 13 -2 19 4 17 17 58 15 58
-2 0 -8 -16 -18 -37 -23 -31 -7 -39 -14 -41 -35 -4 -30 13 -38 74 -36 l30 1
-4 56 c-3 31 -10 59 -16 63 -18 12 -51 9 -72 -6z m64 -73 c-4 -23 -58 -31 -58
-9 0 15 14 24 43 25 12 1 17 -5 15 -16z"/>
<path d="M2590 2703 c0 -76 18 -85 22 -10 3 44 6 52 23 52 17 0 20 -8 23 -52
4 -61 22 -72 22 -14 0 52 8 71 31 71 16 0 19 -8 19 -55 0 -44 3 -55 16 -55 14
0 16 9 12 55 -6 69 -18 83 -58 68 -17 -6 -32 -7 -35 -2 -3 4 -21 8 -40 7 l-35
-1 0 -64z"/>
<path d="M2789 2754 c-18 -21 -1 -46 40 -58 17 -5 31 -13 31 -18 0 -16 -32
-21 -52 -9 -25 15 -35 7 -18 -14 16 -19 64 -20 80 0 19 23 7 47 -30 60 -19 6
-34 16 -33 21 3 14 33 17 48 4 12 -10 15 -9 15 3 0 29 -59 37 -81 11z"/>
<path d="M2970 2703 c0 -35 4 -63 10 -63 6 0 10 17 10 38 0 46 20 78 44 69 12
-5 16 -19 16 -57 0 -66 18 -65 22 3 3 44 6 52 23 52 17 0 20 -8 23 -52 4 -73
22 -67 22 7 0 55 -2 60 -25 66 -14 3 -31 1 -39 -5 -9 -8 -16 -8 -20 -2 -4 5
-24 9 -46 8 l-40 -1 0 -63z"/>
<path d="M3170 2705 c0 -37 4 -65 10 -65 6 0 10 28 10 65 0 37 -4 65 -10 65
-6 0 -10 -28 -10 -65z"/>
<path d="M3236 2748 c-32 -46 -9 -108 41 -108 23 0 60 36 49 48 -4 4 -13 -1
-20 -11 -24 -32 -66 -14 -66 28 0 37 52 64 63 33 2 -7 8 -10 12 -6 13 12 -15
38 -41 38 -12 0 -30 -10 -38 -22z"/>
<path d="M3350 2703 c0 -35 4 -63 10 -63 6 0 10 23 10 51 0 42 3 52 20 56 30
8 24 22 -10 21 l-30 -1 0 -64z"/>
<path d="M3437 2752 c-36 -39 -10 -112 39 -112 36 0 56 23 56 65 0 60 -58 88
-95 47z m68 -47 c0 -43 -22 -58 -50 -35 -32 27 -10 84 30 78 16 -2 20 -11 20
-43z"/>
<path d="M3573 2763 c-7 -2 -13 -15 -13 -28 0 -18 8 -26 35 -35 40 -13 47 -40
11 -40 -13 0 -26 5 -28 12 -2 6 -10 9 -17 7 -21 -7 15 -39 43 -39 54 0 61 59
8 75 -17 5 -32 15 -32 22 0 16 32 17 48 1 17 -17 28 -2 12 17 -12 15 -42 18
-67 8z"/>
<path d="M3695 2756 c-13 -9 -19 -26 -19 -51 0 -56 62 -89 94 -50 17 21 7 29
-18 14 -23 -14 -52 -6 -52 16 0 11 11 15 45 15 51 0 59 16 25 50 -23 23 -49
25 -75 6z m63 -23 c2 -9 -7 -13 -27 -13 -30 0 -39 9 -24 24 11 10 46 3 51 -11z"/>
<path d="M3810 2703 c0 -35 4 -63 10 -63 6 0 10 17 10 38 0 40 14 66 40 74 11
3 21 -11 36 -51 11 -30 25 -56 31 -58 5 -2 20 23 32 55 24 67 25 72 12 72 -5
0 -15 -17 -22 -37 -18 -58 -21 -59 -39 -12 -17 43 -19 44 -64 45 l-46 1 0 -64z"/>
<path d="M4010 2705 c0 -37 4 -65 10 -65 6 0 10 28 10 65 0 37 -4 65 -10 65
-6 0 -10 -28 -10 -65z"/>
<path d="M4076 2748 c-46 -65 27 -145 79 -88 10 11 15 23 11 28 -4 4 -13 -1
-20 -11 -24 -32 -66 -14 -66 28 0 12 5 26 12 33 15 15 48 16 48 2 0 -5 7 -10
17 -10 14 0 14 2 -2 20 -24 26 -60 25 -79 -2z"/>
<path d="M4196 2748 c-45 -64 18 -139 80 -94 25 19 12 31 -15 14 -15 -9 -26
-10 -38 -2 -34 21 -26 34 21 34 39 0 46 3 46 19 0 48 -67 68 -94 29z m72 -15
c2 -9 -8 -13 -33 -13 -33 0 -36 2 -25 15 15 18 51 16 58 -2z"/>
<path d="M4333 2763 c-7 -2 -13 -15 -13 -28 0 -18 8 -26 35 -35 40 -13 47 -40
11 -40 -13 0 -26 5 -28 12 -2 6 -10 9 -17 7 -21 -7 15 -39 43 -39 54 0 61 59
8 75 -17 5 -32 15 -32 22 0 16 32 17 48 1 17 -17 28 -2 12 17 -12 15 -42 18
-67 8z"/>
<path d="M4584 2756 c-10 -8 -16 -18 -11 -22 4 -4 13 -2 19 4 17 17 58 15 58
-2 0 -8 -16 -18 -37 -23 -31 -7 -39 -14 -41 -35 -4 -30 13 -38 74 -36 l30 1
-4 56 c-3 31 -10 59 -16 63 -18 12 -51 9 -72 -6z m64 -73 c-4 -23 -58 -31 -58
-9 0 15 14 24 43 25 12 1 17 -5 15 -16z"/>
<path d="M4710 2703 c0 -35 4 -63 10 -63 6 0 10 23 10 51 0 42 3 52 20 56 30
8 24 22 -10 21 l-30 -1 0 -64z"/>
<path d="M4796 2748 c-46 -65 27 -145 79 -88 10 11 15 23 11 28 -4 4 -13 -1
-20 -11 -24 -32 -66 -14 -66 28 0 12 5 26 12 33 15 15 48 16 48 2 0 -5 7 -10
17 -10 14 0 14 2 -2 20 -24 26 -60 25 -79 -2z"/>
<path d="M5040 2705 c0 -37 4 -65 10 -65 6 0 10 28 10 65 0 37 -4 65 -10 65
-6 0 -10 -28 -10 -65z"/>
<path d="M5175 2756 c-13 -9 -19 -26 -19 -51 0 -60 60 -88 99 -45 20 22 6 27
-24 8 -22 -14 -51 -4 -51 17 0 11 11 15 45 15 49 0 56 10 29 48 -17 25 -51 29
-79 8z m63 -23 c2 -9 -7 -13 -27 -13 -30 0 -39 9 -24 24 11 10 46 3 51 -11z"/>
<path d="M5307 2752 c-38 -41 -7 -118 44 -110 24 3 48 33 35 45 -4 4 -12 0
-17 -10 -14 -23 -46 -22 -54 4 -16 50 20 90 53 57 17 -17 28 -2 12 17 -17 20
-53 19 -73 -3z"/>
<path d="M5480 2716 c0 -62 11 -75 63 -73 l37 1 0 63 c0 76 -18 85 -22 11 -3
-49 -5 -53 -28 -53 -23 0 -25 4 -28 53 -4 68 -22 67 -22 -2z"/>
<path d="M5610 2703 c0 -49 3 -63 15 -63 11 0 15 12 15 51 0 42 3 52 20 56 32
9 23 21 -15 20 l-35 -1 0 -63z"/>
<path d="M5707 2752 c-36 -40 -10 -112 41 -112 22 0 57 28 47 38 -3 3 -11 0
-17 -6 -17 -17 -55 -15 -62 4 -9 24 -9 24 39 24 37 0 45 3 45 18 0 24 -31 52
-57 52 -11 0 -27 -8 -36 -18z m67 -17 c4 -12 -3 -15 -29 -15 -26 0 -33 3 -29
15 4 8 16 15 29 15 13 0 25 -7 29 -15z"/>
<path d="M6030 2703 c0 -35 4 -63 10 -63 6 0 10 23 10 51 0 42 3 52 20 56 30
8 24 22 -10 21 l-30 -1 0 -64z"/>
<path d="M6120 2755 c-7 -9 -10 -19 -6 -22 4 -4 11 -2 15 6 10 15 53 11 58 -5
2 -7 -12 -15 -31 -18 -78 -15 -72 -70 8 -72 l46 -1 0 52 c0 28 -5 56 -12 63
-17 17 -63 15 -78 -3z m68 -67 c-7 -19 -34 -32 -53 -24 -14 5 -15 9 -5 21 15
18 63 20 58 3z"/>
<path d="M6230 2765 c0 -3 7 -32 17 -65 18 -67 38 -77 47 -25 10 49 23 52 31
5 9 -52 31 -52 45 1 6 23 16 52 20 65 7 18 6 24 -4 24 -8 0 -17 -16 -21 -37
-11 -58 -18 -62 -30 -14 -15 61 -31 62 -47 4 l-14 -48 -13 48 c-8 26 -18 47
-22 47 -5 0 -9 -2 -9 -5z"/>
<path d="M6410 2705 c0 -51 3 -65 15 -65 12 0 15 14 15 65 0 51 -3 65 -15 65
-12 0 -15 -14 -15 -65z"/>
<path d="M6477 2752 c-36 -39 -10 -112 39 -112 36 0 58 25 58 65 0 59 -60 88
-97 47z m68 -47 c0 -43 -22 -58 -50 -35 -32 27 -10 84 30 78 16 -2 20 -11 20
-43z"/>
<path d="M5830 2650 c0 -5 7 -10 15 -10 8 0 15 5 15 10 0 6 -7 10 -15 10 -8 0
-15 -4 -15 -10z"/>
<path d="M4420 2600 c0 -6 30 -10 70 -10 40 0 70 4 70 10 0 6 -30 10 -70 10
-40 0 -70 -4 -70 -10z"/>
<path d="M2954 2518 c-4 -13 -12 -27 -18 -31 -8 -6 -8 -10 2 -14 7 -3 12 -25
12 -59 0 -30 5 -54 10 -54 6 0 10 23 10 51 0 38 5 55 18 65 16 13 16 13 0 14
-22 0 -24 18 -3 26 21 9 19 24 -4 24 -12 0 -23 -9 -27 -22z"/>
<path d="M3370 2511 c0 -24 -4 -28 -19 -24 -36 9 -61 -14 -61 -57 0 -48 20
-70 65 -68 l35 1 0 89 c0 52 -4 88 -10 88 -5 0 -10 -13 -10 -29z m-5 -86 c0
-36 -2 -40 -25 -40 -20 0 -26 6 -28 28 -5 42 5 59 30 55 20 -3 23 -9 23 -43z"/>
<path d="M3760 2530 c0 -5 5 -10 10 -10 6 0 10 5 10 10 0 6 -4 10 -10 10 -5 0
-10 -4 -10 -10z"/>
<path d="M3810 2450 c0 -53 4 -90 10 -90 6 0 10 37 10 90 0 53 -4 90 -10 90
-6 0 -10 -37 -10 -90z"/>
<path d="M4080 2510 c0 -27 -2 -29 -29 -24 -50 10 -79 -56 -45 -104 11 -17 24
-21 55 -20 l39 1 0 89 c0 52 -4 88 -10 88 -5 0 -10 -13 -10 -30z m-4 -64 c8
-35 -4 -66 -27 -66 -27 0 -45 41 -30 69 16 29 49 27 57 -3z"/>
<path d="M4280 2510 c0 -27 -2 -29 -29 -24 -22 5 -32 1 -45 -17 -36 -52 -5
-109 59 -107 l35 1 0 89 c0 52 -4 88 -10 88 -5 0 -10 -13 -10 -30z m-4 -64 c8
-35 -4 -66 -27 -66 -27 0 -45 41 -30 69 16 29 49 27 57 -3z"/>
<path d="M4330 2530 c0 -5 5 -10 10 -10 6 0 10 5 10 10 0 6 -4 10 -10 10 -5 0
-10 -4 -10 -10z"/>
<path d="M3563 2510 c-9 -23 -8 -75 3 -127 3 -15 12 -23 24 -23 23 0 27 15 5
24 -22 8 -20 75 3 92 16 12 16 13 0 14 -9 0 -18 10 -21 23 -3 22 -3 22 -14 -3z"/>
<path d="M3026 2477 c-12 -9 -18 -26 -18 -52 0 -60 58 -88 95 -47 51 57 -17
143 -77 99z m64 -21 c26 -32 -7 -87 -44 -73 -16 6 -23 66 -9 80 11 12 40 8 53
-7z"/>
<path d="M3150 2423 c0 -36 4 -63 10 -63 6 0 10 23 10 51 0 42 3 52 20 56 31
8 24 22 -10 20 -30 -2 -30 -2 -30 -64z"/>
<path d="M3437 2472 c-52 -58 17 -143 79 -98 25 19 12 31 -15 14 -15 -9 -26
-10 -38 -2 -34 21 -26 34 21 34 39 0 46 3 46 19 0 46 -62 67 -93 33z m71 -19
c2 -9 -8 -13 -33 -13 -33 0 -36 2 -25 15 15 18 51 16 58 -2z"/>
<path d="M3634 2473 c-13 -13 -14 -18 -3 -22 7 -2 15 1 17 8 5 16 49 14 55 -3
4 -10 -5 -16 -28 -20 -77 -15 -71 -70 9 -72 l46 -1 0 52 c0 28 -5 56 -12 63
-17 17 -64 15 -84 -5z m66 -73 c-12 -22 -45 -27 -56 -9 -8 14 14 29 44 29 20
0 21 -3 12 -20z"/>
<path d="M3760 2425 c0 -37 4 -65 10 -65 6 0 10 28 10 65 0 37 -4 65 -10 65
-6 0 -10 -28 -10 -65z"/>
<path d="M3877 2472 c-52 -58 17 -143 79 -98 25 19 12 31 -15 14 -15 -9 -26
-10 -38 -2 -34 21 -26 34 21 34 39 0 46 3 46 19 0 46 -62 67 -93 33z m71 -19
c2 -9 -8 -13 -33 -13 -33 0 -36 2 -25 15 15 18 51 16 58 -2z"/>
<path d="M4330 2425 c0 -37 4 -65 10 -65 6 0 10 28 10 65 0 37 -4 65 -10 65
-6 0 -10 -28 -10 -65z"/>
<path d="M4394 2473 c-12 -12 -13 -18 -4 -21 7 -3 16 1 20 8 9 14 52 10 57 -6
2 -7 -12 -15 -31 -18 -78 -15 -72 -70 8 -72 l46 -1 0 52 c0 28 -5 56 -12 63
-17 17 -64 15 -84 -5z m66 -73 c-12 -22 -45 -27 -56 -9 -8 14 14 29 44 29 20
0 21 -3 12 -20z"/>
<path d="M4526 2468 c-34 -48 -5 -113 46 -106 22 4 28 1 26 -11 -4 -18 -58
-29 -58 -12 0 6 -4 11 -10 11 -16 0 -11 -27 6 -34 60 -23 84 6 84 98 l0 73
-39 1 c-31 1 -44 -3 -55 -20z m69 -43 c0 -34 -3 -40 -22 -43 -16 -2 -26 4 -34
21 -15 33 4 69 34 65 18 -2 22 -10 22 -43z"/>
<path d="M4650 2423 c0 -35 4 -63 10 -63 6 0 10 16 10 36 0 42 15 74 35 74 8
0 15 4 15 9 0 5 -16 9 -35 8 l-35 -1 0 -63z"/>
<path d="M4744 2476 c-10 -8 -16 -18 -11 -22 4 -4 13 -2 19 4 17 17 58 15 58
-2 0 -8 -16 -18 -37 -23 -31 -7 -39 -14 -41 -35 -4 -30 13 -38 74 -36 l30 1
-4 56 c-3 31 -10 59 -16 63 -18 12 -51 9 -72 -6z m64 -73 c-4 -23 -58 -31 -58
-9 0 15 14 24 43 25 12 1 17 -5 15 -16z"/>
<path d="M4870 2423 c0 -76 18 -85 22 -10 3 44 6 52 23 52 17 0 20 -8 23 -52
4 -61 22 -72 22 -14 0 52 8 71 31 71 16 0 19 -8 19 -55 0 -42 3 -55 15 -55 20
0 21 88 1 116 -13 17 -18 18 -45 7 -17 -6 -33 -7 -36 -2 -3 4 -21 8 -40 7
l-35 -1 0 -64z"/>
</g>
</svg>
